<?xml version="1.0" encoding="UTF-8" standalone="no"?>
<!-- Created with Inkscape (http://www.inkscape.org/) -->

<svg
   width="99.329338mm"
   height="80.777557mm"
   viewBox="0 0 99.329338 80.777557"
   version="1.1"
   id="svg1"
   inkscape:version="1.3.2 (091e20e, 2023-11-25)"
   sodipodi:docname="epicExplosion.svg"
   xmlns:inkscape="http://www.inkscape.org/namespaces/inkscape"
   xmlns:sodipodi="http://sodipodi.sourceforge.net/DTD/sodipodi-0.dtd"
   xmlns="http://www.w3.org/2000/svg"
   xmlns:svg="http://www.w3.org/2000/svg">
  <sodipodi:namedview
     id="namedview1"
     pagecolor="#505050"
     bordercolor="#ffffff"
     borderopacity="1"
     inkscape:showpageshadow="0"
     inkscape:pageopacity="0"
     inkscape:pagecheckerboard="1"
     inkscape:deskcolor="#505050"
     inkscape:document-units="mm"
     inkscape:zoom="0.34228515"
     inkscape:cx="299.45792"
     inkscape:cy="556.55351"
     inkscape:window-width="1392"
     inkscape:window-height="936"
     inkscape:window-x="2147"
     inkscape:window-y="479"
     inkscape:window-maximized="0"
     inkscape:current-layer="layer1" />
  <defs
     id="defs1" />
  <g
     inkscape:label="Layer 1"
     inkscape:groupmode="layer"
     id="layer1"
     transform="translate(-15.266571,-33.818353)">
    <path
       style="fill:#ff6600;stroke-width:0.264583"
       d="M 66.283974,34.011602 51.790393,62.998762 31.112886,33.818353 34.204849,79.231574 15.266571,107.05925 45.606467,82.130288 70.342177,114.59591 63.771753,83.483023 114.59591,91.40618 57.974322,71.308417 Z"
       id="path12" />
    <path
       style="fill:#ff0000;stroke-width:0.264583"
       d="M 63.192011,42.128008 51.017402,69.182691 34.591344,43.480741 36.523824,81.550546 21.450499,100.29558 46.765953,78.651829 65.124488,104.35378 61.45278,80.777555 101.26182,88.507466 55.848596,72.081408 Z"
       id="path13" />
    <path
       style="fill:#ffff00;stroke-width:0.264583"
       d="M 60.873039,48.891679 51.597147,71.501663 39.036042,57.201331 38.263052,82.710032 34.398098,87.734472 47.925439,74.40038 59.520303,86.574986 59.713552,77.878838 89.280456,85.029005 54.302614,72.081408 Z"
       id="path14" />
  </g>
</svg>
