<?xml version="1.0" encoding="UTF-8" standalone="no"?>
<svg
   viewBox="0 0 30 30"
   x="0px"
   y="0px"
   version="1.1"
   id="svg6"
   sodipodi:docname="not-found-box.svg"
   width="30"
   height="30"
   inkscape:version="1.3.2 (091e20e, 2023-11-25)"
   xmlns:inkscape="http://www.inkscape.org/namespaces/inkscape"
   xmlns:sodipodi="http://sodipodi.sourceforge.net/DTD/sodipodi-0.dtd"
   xmlns="http://www.w3.org/2000/svg"
   xmlns:svg="http://www.w3.org/2000/svg">
  <sodipodi:namedview
     id="namedview6"
     pagecolor="#505050"
     bordercolor="#ffffff"
     borderopacity="1"
     inkscape:showpageshadow="0"
     inkscape:pageopacity="0"
     inkscape:pagecheckerboard="1"
     inkscape:deskcolor="#505050"
     inkscape:zoom="20.3"
     inkscape:cx="13.029557"
     inkscape:cy="13.20197"
     inkscape:window-width="1392"
     inkscape:window-height="955"
     inkscape:window-x="2117"
     inkscape:window-y="584"
     inkscape:window-maximized="0"
     inkscape:current-layer="g5" />
  <defs
     id="defs1">
    <style
       id="style1">.cls-1{fill:none;}</style>
  </defs>
  <g
     data-name="404 Page Not Found"
     id="g5"
     transform="translate(-1,-1)"
     style="display:inline">
    <path
       class="cls-1"
       d="M 28.82,5 A 3,3 0 0 0 26,3 H 6 A 3,3 0 0 0 3.18,5 Z"
       id="path1" />
    <path
       d="M 26,1 H 6 A 5,5 0 0 0 1,6 v 20 a 5,5 0 0 0 5,5 h 20 a 5,5 0 0 0 5,-5 V 6 A 5,5 0 0 0 26,1 Z M 6,3 h 20 a 3,3 0 0 1 2.82,2 H 3.18 A 3,3 0 0 1 6,3 Z M 26,29 H 6 A 3,3 0 0 1 3,26 V 7 h 26 v 19 a 3,3 0 0 1 -3,3 z"
       id="path2"
       style="fill:#7e859f;fill-opacity:1" />
    <path
       d="m 20.29,10.29 a 1,1 0 0 0 0,1.42 l 1.3,1.29 -1.3,1.29 a 1,1 0 0 0 0,1.42 1,1 0 0 0 1.42,0 l 1.29,-1.3 1.29,1.3 a 1,1 0 0 0 1.42,0 1,1 0 0 0 0,-1.42 l -1.3,-1.29 1.3,-1.29 a 1.0040916,1.0040916 0 0 0 -1.42,-1.42 l -1.29,1.3 -1.29,-1.3 a 1,1 0 0 0 -1.42,0 z"
       id="path3"
       style="fill:#7e859f;fill-opacity:1" />
    <path
       d="m 6.29,10.29 a 1,1 0 0 0 0,1.42 l 1.3,1.29 -1.3,1.29 a 1,1 0 0 0 0,1.42 1,1 0 0 0 1.42,0 l 1.29,-1.3 1.29,1.3 a 1,1 0 0 0 1.42,0 1,1 0 0 0 0,-1.42 L 10.41,13 11.71,11.71 A 1.0040916,1.0040916 0 0 0 10.29,10.29 L 9,11.59 7.71,10.29 a 1,1 0 0 0 -1.42,0 z"
       id="path4"
       style="fill:#7e859f;fill-opacity:1" />
    <path
       d="M 22.66,24 A 3,3 0 0 1 20.23,22.64 C 19.82,22.16 19.66,22 19.32,22 c -0.34,0 -0.49,0.16 -0.89,0.64 A 3.08,3.08 0 0 1 16,24 3,3 0 0 1 13.57,22.64 C 13.16,22.16 13.01,22 12.67,22 c -0.34,0 -0.5,0.16 -0.9,0.64 A 3,3 0 0 1 9.33,24 3,3 0 0 1 6.9,22.64 C 6.47,22.13 6.32,22 6,22 a 1,1 0 0 1 0,-2 3,3 0 0 1 2.43,1.36 c 0.43,0.51 0.58,0.64 0.9,0.64 0.32,0 0.49,-0.16 0.89,-0.64 a 3.08,3.08 0 0 1 2.44,-1.36 3,3 0 0 1 2.43,1.36 c 0.41,0.48 0.56,0.64 0.9,0.64 0.34,0 0.5,-0.16 0.9,-0.64 a 3,3 0 0 1 2.43,-1.36 3,3 0 0 1 2.44,1.36 c 0.4,0.48 0.56,0.64 0.9,0.64 0.34,0 0.5,-0.16 0.9,-0.64 A 3.08,3.08 0 0 1 26,20 a 1,1 0 0 1 0,2 c -0.34,0 -0.5,0.16 -0.9,0.64 A 3.06,3.06 0 0 1 22.66,24 Z"
       id="path5"
       style="fill:#7e859f;fill-opacity:1" />
  </g>
</svg>
